<?xml version="1.0" standalone="no"?>
<!DOCTYPE svg PUBLIC "-//W3C//DTD SVG 20010904//EN"
 "http://www.w3.org/TR/2001/REC-SVG-20010904/DTD/svg10.dtd">
<svg version="1.0" xmlns="http://www.w3.org/2000/svg"
 width="512.000000pt" height="512.000000pt" viewBox="0 0 512.000000 512.000000"
 preserveAspectRatio="xMidYMid meet">

<g transform="translate(0.000000,512.000000) scale(0.100000,-0.100000)"
fill="#000000" stroke="none">
<path d="M2385 5114 c-218 -22 -393 -53 -541 -98 -424 -129 -779 -340 -1089
-651 -409 -409 -656 -910 -736 -1495 -17 -123 -17 -497 0 -620 80 -585 327
-1086 736 -1495 409 -409 910 -656 1495 -736 123 -17 497 -17 620 0 585 80
1086 327 1495 736 409 409 656 910 736 1495 17 123 17 497 0 620 -80 585 -327
1086 -736 1495 -401 402 -894 648 -1460 731 -98 14 -440 26 -520 18z m477
-528 c431 -67 831 -271 1142 -582 268 -268 456 -600 545 -964 42 -170 55 -285
55 -480 0 -195 -13 -310 -55 -480 -89 -364 -277 -696 -545 -964 -317 -318
-732 -525 -1174 -587 -122 -17 -418 -17 -540 0 -442 62 -857 269 -1174 587
-268 268 -456 600 -545 964 -42 170 -55 285 -55 480 0 195 13 310 55 480 49
199 145 427 252 599 158 254 404 500 658 658 236 148 554 262 810 292 52 6
108 13 124 15 59 9 352 -4 447 -18z"/>
<path d="M2300 3076 l0 -765 28 -19 c36 -26 1284 -793 1298 -799 6 -2 51 60
99 139 48 78 94 152 101 164 14 20 -3 31 -561 365 l-574 344 -1 668 0 667
-195 0 -195 0 0 -764z"/>
</g>
</svg>
