<?xml version="1.0" encoding="UTF-8"?>
<!DOCTYPE svg  PUBLIC '-//W3C//DTD SVG 1.1//EN'  'http://www.w3.org/Graphics/SVG/1.1/DTD/svg11.dtd'>
<svg clip-rule="evenodd" fill-rule="evenodd" image-rendering="optimizeQuality" shape-rendering="geometricPrecision" text-rendering="geometricPrecision" version="1.1" viewBox="0 0 599 625" xmlns="http://www.w3.org/2000/svg">
<path d="m-0.5-0.5h66c41.965 42.465 84.132 84.799 126.5 127 0.464 0.594 0.631 1.261 0.5 2-18.617 10.283-33.283 24.617-44 43-49.333-50-99-99.667-149-149v-23z" fill="#9ae6b4"/>
<path d="m65.5-0.5h76c36.333 36.667 72.667 73.333 109 110-20.252 3.562-39.586 9.896-58 19 0.131-0.739-0.036-1.406-0.5-2-42.368-42.201-84.535-84.535-126.5-127z" fill="#9ae6b4"/>
<path d="m141.5-0.5h76c34.132 34.632 68.465 69.132 103 103.5-4.188 0.176-8.188 0.676-12 1.5-19.495-0.065-38.828 1.602-58 5-36.333-36.667-72.667-73.333-109-110z" fill="#9ae6b4"/>
<path d="m217.5-0.5h66c36.465 36.965 73.132 73.799 110 110.5 1.558 0.21 2.891 0.71 4 1.5-29.447-5.026-59.113-7.36-89-7 3.812-0.824 7.812-1.324 12-1.5-34.535-34.368-68.868-68.868-103-103.5z" fill="#9ae6b4"/>
<path d="m283.5-0.5h86c76 76.667 152.33 153 229 229v86c-49.667-49.333-99.333-98.667-149-148 0.329-14.177-4e-3 -28.177-1-42-16.802-5.117-33.802-9.45-51-13-1.109-0.79-2.442-1.29-4-1.5-36.868-36.701-73.535-73.535-110-110.5z" fill="#9ae6b4"/>
<path d="m369.5-0.5h75c51 51.667 102.33 103 154 154v75c-76.667-76-153-152.33-229-229z" fill="#9ae6b4"/>
<path d="m444.5-0.5h76c25.667 26.333 51.667 52.333 78 78v76c-51.667-51-103-102.33-154-154z" fill="#9ae6b4"/>
<path d="m520.5-0.5h78v78c-26.333-25.667-52.333-51.667-78-78z" fill="#9ae6b4"/>
<path d="m-0.5 22.5c50 49.333 99.667 99 149 149-10.254 20.746-14.587 42.746-13 66-0.802-1.452-1.302-3.118-1.5-5-44.701-44.868-89.535-89.535-134.5-134v-76z" fill="#9ae6b4"/>
<path d="m-0.5 98.5c44.965 44.465 89.799 89.132 134.5 134 0.198 1.882 0.698 3.548 1.5 5 0.736 63.397 32.403 99.731 95 109 6.622 1.161 13.289 1.828 20 2 33.333 33.667 66.667 67.333 100 101-13.709 5.701-28.042 8.868-43 9.5-13.173 0.827-26.173 0.66-39-0.5 5.011 0.166 10.011-1e-3 15-0.5-94.535-94.701-189.2-189.2-284-283.5v-76z" fill="#9ae6b4"/>
<path d="m308.5 104.5c29.887-0.36 59.553 1.974 89 7 17.198 3.55 34.198 7.883 51 13 0.331 23.173-2e-3 46.173-1 69-16.017-5.672-32.351-10.339-49-14-28.019-5.742-56.352-8.409-85-8-17.94-0.766-35.607 1.067-53 5.5-4.964 1.371-9.631 3.204-14 5.5-30.196 14.081-40.696 37.414-31.5 70 5.167 13.164 14.667 21.331 28.5 24.5 4.934 1.16 9.934 1.66 15 1.5 33.851 0.581 67.851 1.414 102 2.5 70.716 8.893 105.05 49.06 103 120.5-0.448 23.809-6.782 45.809-19 66-10.441 14.774-23.441 26.774-39 36-19.882 9.185-40.548 15.518-62 19-22.571 2.531-45.238 3.531-68 3-31.702-0.637-63.036-4.303-94-11-10.515-2.37-20.848-5.37-31-9-0.997-7.303-1.331-14.637-1-22v-47c15.661 5.553 31.661 9.887 48 13 8.753 2.384 17.753 4.218 27 5.5 14.59 2.159 29.256 3.326 44 3.5 12.827 1.16 25.827 1.327 39 0.5 14.958-0.632 29.291-3.799 43-9.5 20.024-7.528 31.858-21.861 35.5-43 3.865-35.466-11.968-54.633-47.5-57.5-29.331-0.5-58.665-0.667-88-0.5-6.711-0.172-13.378-0.839-20-2-62.597-9.269-94.264-45.603-95-109-1.587-23.254 2.746-45.254 13-66 10.717-18.383 25.383-32.717 44-43 18.414-9.104 37.748-15.438 58-19 19.172-3.398 38.505-5.065 58-5z" fill="#1e1e1e"/>
<path d="m448.5 124.5c0.996 13.823 1.329 27.823 1 42 0.332 9.357-2e-3 18.69-1 28-0.607-0.124-0.94-0.457-1-1 0.998-22.827 1.331-45.827 1-69z" fill="#9ae6b4"/>
<path d="m449.5 166.5c49.667 49.333 99.333 98.667 149 148v66c-67.382-66.382-134.05-133.38-200-201 16.649 3.661 32.983 8.328 49 14 0.06 0.543 0.393 0.876 1 1 0.998-9.31 1.332-18.643 1-28z" fill="#9ae6b4"/>
<path d="m313.5 171.5c94.667 95.333 189.67 190.33 285 285v76c-44.632-44.132-89.132-88.465-133.5-133-0.278 0.916-0.778 1.582-1.5 2 2.049-71.44-32.284-111.61-103-120.5-34.149-1.086-68.149-1.919-102-2.5 28.335 0.167 56.669 0 85-0.5-31.917-32.418-64.251-64.252-97-95.5 4.369-2.296 9.036-4.129 14-5.5 17.393-4.433 35.06-6.266 53-5.5z" fill="#9ae6b4"/>
<path d="m313.5 171.5c28.648-0.409 56.981 2.258 85 8 65.951 67.618 132.62 134.62 200 201v76c-95.333-94.667-190.33-189.67-285-285z" fill="#9ae6b4"/>
<path d="m-0.5 174.5c94.799 94.299 189.46 188.8 284 283.5-4.989 0.499-9.989 0.666-15 0.5-14.744-0.174-29.41-1.341-44-3.5-9.247-1.282-18.247-3.116-27-5.5-64.998-66.667-131-133-198-199v-76z" fill="#9ae6b4"/>
<path d="m246.5 182.5c32.749 31.248 65.083 63.082 97 95.5-28.331 0.5-56.665 0.667-85 0.5-5.066 0.16-10.066-0.34-15-1.5-13.833-3.169-23.333-11.336-28.5-24.5-9.196-32.586 1.304-55.919 31.5-70z" fill="#9ae6b4"/>
<path d="m-0.5 250.5c67.002 66 133 132.33 198 199-16.339-3.113-32.339-7.447-48-13v47c-50-49.667-100-99.333-150-149v-84z" fill="#9ae6b4"/>
<path d="m-0.5 334.5c50 49.667 100 99.333 150 149-0.331 7.363 3e-3 14.697 1 22 10.152 3.63 20.485 6.63 31 9-0.131 0.739 0.036 1.406 0.5 2 36.035 35.868 71.868 71.868 107.5 108h-68c-73.667-74.333-147.67-148.33-222-222v-68z" fill="#9ae6b4"/>
<path d="m250.5 348.5c29.335-0.167 58.669 0 88 0.5 35.532 2.867 51.365 22.034 47.5 57.5-3.642 21.139-15.476 35.472-35.5 43-33.333-33.667-66.667-67.333-100-101z" fill="#9ae6b4"/>
<path d="m598.5 532.5v88c-51.333-51-102.67-102-154-153 12.218-20.191 18.552-42.191 19-66 0.722-0.418 1.222-1.084 1.5-2 44.368 44.535 88.868 88.868 133.5 133z" fill="#9ae6b4"/>
<path d="m-0.5 402.5c74.333 73.667 148.33 147.67 222 222h-76c-48.333-49-97-97.667-146-146v-76z" fill="#9ae6b4"/>
<path d="m444.5 467.5c51.333 51 102.67 102 154 153v4h-73c-40-40.333-80-80.667-120-121 15.559-9.226 28.559-21.226 39-36z" fill="#9ae6b4"/>
<path d="m-0.5 478.5c49 48.333 97.667 97 146 146h-146v-146z" fill="#9ae6b4"/>
<path d="m405.5 503.5c40 40.333 80 80.667 120 121h-76c-33.465-33.965-67.132-67.799-101-101.5-1.634-0.494-3.301-0.66-5-0.5 21.452-3.482 42.118-9.815 62-19z" fill="#9ae6b4"/>
<path d="m181.5 514.5c30.964 6.697 62.298 10.363 94 11 32.667 33 65.333 66 98 99h-84c-35.632-36.132-71.465-72.132-107.5-108-0.464-0.594-0.631-1.261-0.5-2z" fill="#9ae6b4"/>
<path d="m343.5 522.5c1.699-0.16 3.366 6e-3 5 0.5 33.868 33.701 67.535 67.535 101 101.5h-76c-32.667-33-65.333-66-98-99 22.762 0.531 45.429-0.469 68-3z" fill="#9ae6b4"/>
</svg>
