<?xml version="1.0" standalone="no"?>
<!DOCTYPE svg PUBLIC "-//W3C//DTD SVG 20010904//EN"
 "http://www.w3.org/TR/2001/REC-SVG-20010904/DTD/svg10.dtd">
<svg version="1.0" xmlns="http://www.w3.org/2000/svg"
 width="1532.000000pt" height="1540.000000pt" viewBox="0 0 1532.000000 1540.000000"
 preserveAspectRatio="xMidYMid meet">

<g transform="translate(0.000000,1540.000000) scale(0.100000,-0.100000)"
fill="#000000" stroke="none">
<path d="M7345 15384 c-102 -20 -131 -23 -330 -34 -99 -5 -218 -16 -265 -24
-47 -8 -133 -20 -193 -25 -59 -6 -116 -15 -127 -21 -11 -6 -68 -17 -127 -25
-60 -9 -128 -22 -153 -29 -25 -8 -67 -17 -95 -21 -27 -3 -77 -15 -110 -24 -33
-10 -85 -22 -115 -26 -30 -4 -64 -12 -75 -18 -10 -5 -53 -18 -95 -28 -113 -27
-295 -81 -395 -119 -27 -10 -66 -23 -85 -29 -19 -5 -71 -23 -115 -40 -44 -16
-100 -36 -125 -46 -85 -31 -175 -66 -205 -80 -82 -38 -144 -65 -150 -65 -13 0
-366 -173 -515 -252 -271 -144 -779 -460 -870 -543 -14 -12 -47 -37 -75 -56
-71 -48 -225 -168 -329 -258 -49 -42 -102 -86 -118 -97 -130 -96 -657 -627
-839 -847 -29 -34 -68 -82 -88 -106 -20 -24 -50 -60 -67 -80 -115 -132 -400
-536 -548 -776 -93 -152 -268 -472 -350 -640 -87 -178 -90 -185 -141 -305 -20
-47 -42 -98 -50 -115 -27 -62 -57 -141 -67 -175 -6 -19 -14 -40 -20 -47 -5 -6
-18 -38 -28 -70 -10 -32 -33 -96 -50 -143 -17 -47 -38 -110 -46 -140 -9 -30
-20 -60 -24 -65 -5 -6 -18 -46 -29 -90 -12 -44 -33 -120 -47 -170 -26 -93 -50
-190 -79 -310 -9 -38 -25 -104 -35 -145 -10 -41 -24 -110 -29 -154 -6 -43 -18
-101 -25 -130 -8 -28 -17 -82 -21 -121 -3 -38 -12 -101 -20 -140 -7 -38 -19
-121 -25 -183 -6 -63 -20 -151 -30 -195 -19 -77 -20 -121 -20 -682 0 -599 0
-600 24 -700 13 -55 27 -140 30 -190 3 -49 15 -139 26 -199 11 -61 20 -126 20
-146 0 -20 7 -59 15 -86 8 -27 21 -96 29 -153 9 -57 22 -127 30 -155 8 -28 27
-105 42 -171 14 -66 35 -147 44 -180 10 -33 32 -109 50 -170 17 -60 39 -132
50 -160 10 -27 23 -66 29 -85 5 -19 24 -73 41 -120 17 -47 40 -110 49 -140 10
-30 23 -64 29 -75 6 -11 27 -60 46 -110 67 -173 210 -477 344 -730 291 -548
692 -1111 1109 -1560 448 -481 910 -879 1398 -1202 175 -116 220 -145 320
-203 50 -29 106 -63 126 -76 19 -13 38 -24 42 -24 4 0 64 -32 135 -72 110 -62
237 -125 477 -238 91 -43 153 -70 160 -70 8 0 135 -53 180 -75 115 -56 652
-232 880 -289 55 -13 127 -32 160 -41 33 -9 96 -23 140 -30 44 -8 107 -21 140
-30 33 -8 105 -20 160 -25 55 -6 127 -17 160 -25 33 -7 110 -17 170 -20 61 -4
139 -13 175 -20 61 -13 228 -25 580 -44 290 -15 1036 10 1169 40 24 5 89 14
145 19 56 6 148 19 206 30 58 11 148 26 200 35 129 20 232 42 310 65 36 10 83
22 105 25 22 4 67 15 100 25 33 10 78 23 100 28 67 18 208 60 240 71 17 6 77
27 135 46 58 18 119 41 135 49 17 9 36 16 42 16 22 0 285 105 443 177 137 63
176 81 345 164 99 49 234 120 300 158 66 39 130 75 143 80 12 6 35 19 50 29
15 10 45 30 67 44 238 149 496 326 599 411 32 26 62 47 67 47 4 0 16 8 26 18
27 27 131 113 198 164 33 25 74 59 90 75 38 37 191 172 230 204 62 50 340 328
418 419 45 52 131 148 191 215 59 66 115 131 124 145 9 14 42 57 73 95 32 39
77 97 101 131 23 34 71 99 105 145 34 46 72 99 85 117 13 18 34 48 48 67 22
30 51 76 146 225 58 92 174 289 174 296 0 4 6 15 14 23 29 33 278 524 335 661
17 41 40 92 51 112 11 20 20 43 20 50 0 8 9 32 20 53 11 22 27 61 34 86 8 25
19 55 25 65 18 32 58 144 91 254 18 58 40 130 50 160 10 30 30 96 45 145 14
50 33 108 42 130 8 22 23 81 34 130 17 86 39 183 73 325 37 157 66 311 71 385
4 44 13 112 21 152 8 39 19 152 24 251 9 180 22 251 40 222 6 -9 10 190 10
526 0 525 -1 542 -19 547 -23 6 -27 39 -36 255 -3 78 -12 172 -19 210 -8 37
-18 108 -21 157 -4 50 -13 115 -20 145 -8 30 -21 98 -29 150 -8 53 -22 113
-29 135 -8 22 -18 67 -22 99 -4 33 -11 71 -17 85 -5 14 -16 62 -24 106 -9 43
-20 88 -26 99 -6 11 -19 52 -29 91 -31 116 -66 238 -78 270 -6 17 -36 107 -67
200 -31 94 -60 175 -65 181 -5 6 -18 37 -29 68 -11 31 -29 80 -39 110 -10 29
-24 62 -30 72 -6 10 -29 64 -52 119 -92 221 -242 513 -449 871 -128 221 -421
647 -574 833 -34 41 -83 102 -110 135 -72 89 -379 427 -477 525 -113 113 -468
436 -549 499 -158 124 -421 321 -480 361 -36 25 -101 68 -145 98 -44 29 -100
66 -125 83 -62 42 -200 125 -290 175 -41 22 -86 48 -100 57 -36 24 -213 117
-365 192 -135 67 -169 82 -295 135 -41 17 -93 40 -115 50 -59 28 -174 71 -188
71 -6 0 -25 7 -42 16 -16 9 -55 25 -85 36 -30 10 -86 30 -125 44 -38 14 -101
34 -140 45 -38 11 -74 24 -80 29 -6 5 -37 15 -70 24 -179 46 -243 64 -261 74
-11 6 -42 15 -69 20 -28 6 -113 24 -190 42 -77 17 -201 42 -277 54 -75 13
-140 26 -145 29 -5 3 -58 11 -119 17 -60 6 -145 18 -189 25 -104 19 -296 35
-411 35 -52 0 -134 9 -189 20 -83 17 -134 20 -349 19 -172 -1 -273 -5 -321
-15z m-112 -5257 c62 -31 100 -78 117 -148 22 -88 -28 -187 -117 -230 l-48
-24 -1515 -2 c-833 0 -1551 -4 -1595 -7 -296 -24 -550 -197 -705 -479 -113
-208 -126 -513 -31 -754 90 -228 334 -440 586 -508 87 -24 128 -28 305 -35
176 -6 213 -10 262 -29 88 -34 138 -105 138 -196 0 -43 -42 -126 -78 -157 -57
-48 -85 -51 -351 -45 -330 8 -443 31 -640 131 -239 122 -443 324 -575 570
-115 216 -163 426 -153 671 9 229 55 395 159 573 72 124 136 210 233 310 100
105 184 169 306 232 185 95 337 139 519 149 69 3 801 6 1626 5 l1502 -1 55
-26z m5137 -7 c96 -54 138 -176 92 -267 -27 -51 -81 -99 -129 -112 -26 -8
-519 -11 -1547 -11 -1579 0 -1618 -1 -1767 -44 -206 -60 -426 -251 -532 -463
-122 -241 -122 -554 -2 -793 102 -203 305 -376 526 -449 101 -33 168 -42 379
-49 180 -7 199 -9 244 -32 28 -14 64 -42 80 -63 28 -35 31 -46 31 -112 0 -65
-3 -78 -30 -116 -65 -92 -116 -104 -390 -95 -314 10 -427 34 -630 135 -138 69
-241 147 -368 281 -205 215 -321 466 -351 761 -43 406 83 757 383 1073 192
201 490 350 754 375 45 5 786 8 1647 7 l1565 -1 45 -25z m-6174 -2201 c169
-16 381 -93 543 -196 83 -53 232 -177 276 -230 130 -155 221 -312 271 -468 37
-118 64 -290 64 -413 0 -485 -271 -929 -710 -1165 -99 -54 -293 -120 -400
-138 -57 -10 -448 -14 -1625 -16 -852 -3 -1574 -1 -1604 2 -45 6 -61 14 -101
51 -56 52 -74 101 -68 178 5 64 36 111 107 161 l43 30 1566 6 c1091 4 1586 9
1628 17 85 16 212 64 295 111 292 169 451 458 436 795 -11 244 -91 427 -267
606 -89 91 -172 148 -281 190 -135 52 -196 62 -441 69 -180 6 -231 11 -250 23
-85 57 -129 151 -108 231 21 79 70 128 160 160 27 10 355 7 466 -4z m5154 -4
c478 -57 941 -453 1075 -919 40 -139 48 -209 48 -391 0 -158 -2 -179 -32 -300
-38 -152 -128 -350 -207 -455 -164 -218 -377 -380 -617 -470 -140 -53 -207
-67 -367 -80 -201 -15 -3105 -12 -3147 3 -38 14 -98 68 -117 106 -42 81 -23
174 49 240 84 77 -53 71 1617 71 1629 0 1632 0 1793 55 405 136 650 524 595
945 -29 226 -117 391 -299 562 -98 92 -216 156 -357 193 -86 23 -128 28 -324
34 -249 8 -267 12 -316 76 -58 76 -67 146 -28 223 27 55 64 87 123 108 49 18
363 17 511 -1z"/>
</g>
</svg>
