<!-- icon666.com - MILLIONS vector ICONS FREE --><svg version="1.1" id="Layer_1" xmlns="http://www.w3.org/2000/svg" xmlns:xlink="http://www.w3.org/1999/xlink" x="0px" y="0px" viewBox="0 0 512 512" style="enable-background:new 0 0 512 512;" xml:space="preserve"><path style="fill:#B8002A;" d="M422.542,92.477h-87.318H180.739c-85.32,0-154.485,69.166-154.485,154.485v136.024h319.75V159.89 h76.539V92.477H422.542z"></path><path style="fill:#DE0436;" d="M186.129,92.477h-5.39c-85.32,0-154.485,69.165-154.485,154.485v136.024h159.875V92.477z"></path><g><path style="fill:#7DAEC9;" d="M372.257,424.662c0,14.499-11.754,26.254-26.254,26.254H26.254C11.754,450.915,0,439.161,0,424.662 v-57.216c0-14.5,11.754-26.254,26.254-26.254h319.75c14.5,0,26.254,11.754,26.254,26.254v57.216H372.257z"></path><circle style="fill:#7DAEC9;" cx="446.903" cy="126.181" r="65.097"></circle></g><g><path style="fill:#BDE5F9;" d="M446.9,61.084c-35.954,0-65.1,29.146-65.1,65.1s29.146,65.1,65.1,65.1V61.084z"></path><path style="fill:#BDE5F9;" d="M186.129,341.191H26.254C11.754,341.191,0,352.945,0,367.444v57.217 c0,14.5,11.754,26.254,26.254,26.254h159.875L186.129,341.191L186.129,341.191z"></path></g></svg>